<?xml version="1.0" standalone="no"?>
<!DOCTYPE svg PUBLIC "-//W3C//DTD SVG 20010904//EN"
 "http://www.w3.org/TR/2001/REC-SVG-20010904/DTD/svg10.dtd">
<svg version="1.0" xmlns="http://www.w3.org/2000/svg"
 width="747.000000pt" height="224.000000pt" viewBox="0 0 747.000000 224.000000"
 preserveAspectRatio="xMidYMid meet">

<g transform="translate(0.000000,224.000000) scale(0.100000,-0.100000)"
fill="#ff0103" stroke="none">
<path d="M70 1420 l0 -780 3665 0 3665 0 0 780 0 780 -3665 0 -3665 0 0 -780z
m3610 0 l0 -760 -1795 0 -1795 0 0 760 0 760 1795 0 1795 0 0 -760z m1492 393
c82 -39 136 -92 177 -174 35 -73 51 -144 51 -234 0 -194 -77 -338 -218 -407
-65 -32 -70 -33 -197 -33 -120 0 -134 2 -187 27 -121 56 -199 174 -220 330
-33 248 75 449 275 514 27 9 79 13 147 11 94 -2 112 -6 172 -34z m-1220 -135
l3 -153 143 -3 142 -3 0 156 0 155 110 0 110 0 0 -425 0 -425 -110 0 -110 0 0
190 0 191 -142 -3 -143 -3 -3 -187 -2 -188 -105 0 -105 0 0 425 0 425 105 0
104 0 3 -152z m1878 35 c29 -65 70 -156 92 -203 l40 -85 47 100 c26 55 67 146
92 203 l44 102 127 0 128 0 0 -425 0 -425 -110 0 -110 0 -2 268 -3 267 -70
-165 -71 -165 -78 0 -79 0 -66 157 c-37 86 -70 160 -74 164 -4 4 -7 -113 -7
-259 l0 -267 -100 0 -100 0 0 425 0 425 124 0 123 0 53 -117z m1320 37 l0 -80
-180 0 -180 0 0 -75 0 -75 165 0 165 0 0 -80 0 -80 -165 0 -165 0 0 -110 0
-110 180 0 180 0 0 -80 0 -80 -290 0 -290 0 0 425 0 425 290 0 290 0 0 -80z"/>
<path d="M1502 1835 c-113 -32 -185 -93 -239 -203 l-38 -76 0 -150 c0 -150 0
-151 33 -222 41 -87 105 -153 187 -191 55 -26 70 -28 180 -28 115 0 123 1 185
32 36 17 74 40 86 50 48 42 95 118 115 184 30 97 24 293 -11 384 -32 83 -122
173 -205 205 -77 29 -217 36 -293 15z m219 -180 c58 -37 83 -101 87 -219 5
-120 -9 -190 -49 -246 -78 -108 -229 -88 -290 37 -32 66 -40 236 -14 314 21
62 75 125 119 139 44 13 105 3 147 -25z"/>
<path d="M2415 1836 c-197 -49 -305 -222 -292 -466 12 -209 102 -339 270 -391
88 -28 223 -23 309 10 149 58 238 213 238 416 0 232 -114 393 -308 434 -67 14
-153 13 -217 -3z m180 -165 c49 -22 68 -43 97 -106 20 -43 23 -66 23 -165 0
-100 -3 -121 -24 -162 -62 -127 -188 -156 -277 -64 -51 54 -69 114 -69 231 1
146 34 222 115 263 53 27 82 27 135 3z"/>
<path d="M420 1406 l0 -426 105 0 105 0 0 155 0 155 38 0 c36 -1 40 -5 152
-155 l115 -154 133 -1 133 0 -86 108 c-161 202 -200 255 -189 259 37 12 96 70
118 115 21 42 26 67 26 125 0 85 -14 126 -61 170 -66 63 -89 67 -351 71 l-238
4 0 -426z m325 264 c86 -11 105 -29 105 -101 0 -87 -31 -112 -152 -124 l-68
-7 0 121 c0 139 -12 128 115 111z"/>
<path d="M3070 1405 l0 -425 280 0 280 0 0 80 0 80 -175 0 -175 0 0 345 0 345
-105 0 -105 0 0 -425z"/>
<path d="M4904 1661 c-67 -41 -104 -134 -104 -261 0 -143 55 -247 142 -271
125 -33 218 65 226 241 7 148 -23 237 -97 287 -44 30 -122 31 -167 4z"/>
<path d="M1048 434 c-10 -3 -18 -14 -18 -24 0 -16 7 -18 58 -14 62 5 78 -1 84
-31 3 -16 -5 -20 -52 -27 -75 -11 -104 -34 -108 -86 -6 -75 58 -113 128 -77
18 9 31 11 35 5 3 -6 15 -10 26 -10 20 0 21 5 17 110 -4 134 -15 152 -100 156
-29 1 -61 0 -70 -2z m130 -147 c10 -49 -26 -87 -81 -87 -70 0 -58 89 13 103
43 8 65 3 68 -16z"/>
<path d="M1715 431 c-29 -12 -55 -44 -64 -77 -6 -22 -13 -29 -32 -29 -22 0
-24 4 -27 53 -3 44 -6 52 -23 52 -18 0 -19 -8 -19 -130 0 -122 1 -130 20 -130
16 0 19 8 22 58 3 53 5 57 28 57 19 0 25 -6 31 -34 4 -18 19 -45 33 -60 37
-36 112 -37 150 -2 53 50 56 158 7 213 -28 31 -89 45 -126 29z m81 -39 c20
-13 34 -50 34 -92 0 -67 -24 -100 -72 -100 -44 0 -68 35 -68 100 0 43 5 61 20
78 20 22 64 29 86 14z"/>
<path d="M1943 433 c-16 -3 -23 -11 -23 -28 0 -24 0 -24 36 -9 43 18 79 12 94
-16 14 -27 -19 -60 -60 -60 -20 0 -30 -5 -30 -15 0 -10 10 -15 31 -15 43 0 69
-17 69 -44 0 -36 -24 -49 -78 -43 -26 2 -55 8 -64 12 -23 9 -24 -17 -2 -36 24
-20 124 -18 157 4 35 23 39 90 6 108 l-21 11 21 22 c63 67 -18 132 -136 109z"/>
<path d="M2658 424 c-16 -8 -28 -10 -28 -4 0 5 -9 10 -20 10 -19 0 -20 -7 -20
-180 0 -173 1 -180 20 -180 17 0 20 7 20 48 l0 48 56 0 c50 -1 58 2 84 31 53
60 50 178 -7 222 -30 24 -67 26 -105 5z m82 -44 c15 -15 20 -33 20 -77 0 -66
-25 -103 -71 -103 -55 0 -59 6 -59 91 0 69 2 80 22 93 31 22 64 20 88 -4z"/>
<path d="M2889 417 c-64 -43 -73 -172 -15 -226 53 -50 154 -31 181 33 34 80
10 177 -49 201 -49 21 -78 19 -117 -8z m116 -37 c26 -28 27 -116 2 -153 -22
-34 -70 -37 -104 -5 -32 30 -33 123 -3 156 27 29 80 29 105 2z"/>
<path d="M3694 425 c-43 -22 -64 -63 -64 -127 0 -71 26 -113 80 -129 54 -16
120 2 120 32 0 16 -4 19 -17 13 -33 -14 -93 -16 -108 -4 -39 33 -42 133 -4
171 21 21 69 25 101 8 15 -8 22 -8 28 1 4 7 25 10 51 8 l44 -3 3 -112 c2 -104
4 -113 22 -113 18 0 20 9 22 113 l3 112 43 3 c29 2 42 8 42 18 0 13 -20 15
-127 14 -71 0 -146 2 -168 5 -27 4 -50 0 -71 -10z"/>
<path d="M4123 433 c-14 -3 -23 -12 -23 -23 0 -16 6 -18 62 -13 52 5 63 3 75
-12 21 -30 16 -45 -16 -45 -109 0 -165 -57 -130 -133 12 -26 47 -47 77 -47 9
0 30 7 47 16 19 10 31 11 33 5 2 -6 12 -11 23 -11 17 0 19 8 19 104 0 57 -3
112 -6 121 -14 36 -86 53 -161 38z m127 -162 c0 -45 -26 -71 -70 -71 -32 0
-46 10 -54 36 -9 28 14 54 54 64 66 15 70 14 70 -29z"/>
<path d="M5628 424 c-38 -20 -58 -63 -58 -124 0 -62 20 -105 60 -125 57 -30
127 -10 155 45 19 37 19 123 0 160 -28 54 -101 75 -157 44z m98 -32 c39 -25
46 -124 13 -166 -15 -19 -30 -26 -54 -26 -47 0 -75 37 -75 100 0 62 28 100 73
100 18 0 37 -4 43 -8z"/>
<path d="M5928 424 c-16 -8 -28 -10 -28 -4 0 5 -11 10 -25 10 l-25 0 0 -181 0
-180 23 3 c23 3 24 5 26 61 l1 33 56 0 c49 -1 59 2 80 27 52 60 54 169 3 219
-31 32 -69 36 -111 12z m77 -38 c13 -10 20 -30 23 -72 5 -74 -20 -114 -71
-114 -50 0 -57 10 -60 85 -3 61 0 73 20 92 25 26 60 30 88 9z"/>
<path d="M6174 431 c-78 -34 -96 -178 -30 -240 29 -27 92 -37 126 -19 80 43
93 178 22 241 -24 22 -87 31 -118 18z m103 -57 c10 -16 17 -46 17 -74 0 -68
-23 -100 -74 -100 -51 0 -74 32 -74 100 0 68 23 100 74 100 32 0 43 -5 57 -26z"/>
<path d="M6643 433 c-14 -3 -23 -12 -23 -23 0 -16 6 -18 62 -13 52 5 63 3 75
-12 22 -32 16 -45 -22 -45 -45 0 -113 -27 -125 -51 -22 -40 -3 -100 37 -118
32 -15 52 -14 88 5 19 10 31 11 33 5 2 -6 12 -11 23 -11 17 0 19 8 19 104 0
57 -3 112 -6 121 -14 36 -86 53 -161 38z m127 -162 c0 -45 -26 -71 -70 -71
-32 0 -46 10 -54 36 -9 28 14 54 54 64 66 15 70 14 70 -29z"/>
<path d="M640 417 c0 -7 10 -17 22 -22 12 -6 32 -30 45 -54 l23 -44 -38 -51
c-56 -74 -56 -76 -30 -76 16 1 35 18 66 60 24 33 48 60 53 60 5 0 9 -27 9 -60
0 -53 2 -60 20 -60 18 0 20 7 20 60 0 77 13 77 65 0 29 -44 46 -60 62 -60 13
0 23 2 23 5 0 3 -20 33 -44 66 l-44 60 25 44 c13 24 33 47 44 50 27 9 24 35
-3 35 -34 0 -49 -13 -72 -62 -12 -23 -29 -44 -38 -46 -15 -3 -18 5 -18 52 0
49 -2 56 -20 56 -18 0 -20 -7 -20 -56 0 -47 -3 -55 -17 -52 -10 2 -27 23 -39
46 -11 24 -27 48 -35 53 -21 13 -59 11 -59 -4z"/>
<path d="M1316 398 c-3 -18 -7 -64 -10 -103 -3 -57 -8 -72 -25 -84 -28 -18
-28 -43 0 -39 40 6 59 47 66 141 l6 88 46 -3 46 -3 3 -112 c2 -105 4 -113 22
-113 19 0 20 7 20 130 l0 130 -85 0 -84 0 -5 -32z"/>
<path d="M2150 300 c0 -128 0 -130 23 -130 17 1 35 22 82 98 l60 97 3 -97 c2
-90 4 -98 22 -98 19 0 20 7 20 130 0 123 -1 130 -20 130 -14 0 -38 -27 -83
-97 l-62 -98 -3 98 c-2 89 -4 97 -22 97 -19 0 -20 -7 -20 -130z"/>
<path d="M3147 338 c-5 -106 -11 -125 -38 -133 -10 -4 -19 -13 -19 -21 0 -20
44 -17 64 5 17 19 36 108 36 174 l0 37 45 0 45 0 0 -115 0 -115 25 0 25 0 0
130 0 130 -89 0 -88 0 -6 -92z"/>
<path d="M3400 300 l0 -130 65 0 c77 0 122 19 131 55 16 64 -27 105 -111 105
l-45 0 0 50 c0 43 -3 50 -20 50 -19 0 -20 -7 -20 -130z m147 -26 c17 -24 16
-31 -7 -54 -13 -13 -33 -20 -60 -20 l-40 0 0 43 c0 24 3 47 8 51 12 13 86 -2
99 -20z"/>
<path d="M4360 300 l0 -130 76 0 c71 0 77 2 106 30 24 25 29 36 23 58 -3 15
-15 34 -26 43 -19 14 -19 17 -5 28 22 18 20 64 -2 84 -14 13 -38 17 -95 17
l-77 0 0 -130z m138 88 c33 -33 -3 -72 -61 -66 -29 3 -32 6 -35 41 l-3 37 43
0 c24 0 49 -5 56 -12z m6 -104 c23 -9 21 -61 -3 -74 -11 -5 -38 -10 -60 -10
l-41 0 0 45 0 45 44 0 c24 0 51 -3 60 -6z"/>
<path d="M4620 300 c0 -123 1 -130 20 -130 18 0 20 7 20 60 l0 60 60 0 60 0 0
-60 c0 -57 1 -60 25 -60 l25 0 0 130 0 130 -25 0 c-24 0 -25 -3 -25 -55 l0
-56 -57 3 -58 3 -3 53 c-3 44 -6 52 -23 52 -18 0 -19 -8 -19 -130z"/>
<path d="M4890 300 c0 -129 0 -130 23 -130 18 0 35 20 82 97 l60 96 3 -96 c2
-89 4 -97 22 -97 19 0 20 7 20 130 0 121 -1 130 -19 130 -13 0 -37 -28 -76
-90 -32 -50 -59 -89 -61 -88 -2 2 -4 43 -6 91 -3 83 -4 87 -25 87 -23 0 -23
-2 -23 -130z"/>
<path d="M5330 300 l0 -130 74 0 c59 0 78 4 100 21 32 26 36 81 7 106 -18 15
-18 19 -5 37 19 28 18 60 -4 79 -14 13 -38 17 -95 17 l-77 0 0 -130z m140 85
c28 -34 -14 -71 -71 -63 -20 2 -25 10 -27 41 l-3 37 44 0 c27 0 49 -6 57 -15z
m4 -101 c23 -9 21 -61 -3 -74 -11 -5 -38 -10 -60 -10 l-41 0 0 45 0 45 44 0
c24 0 51 -3 60 -6z"/>
<path d="M6360 416 c0 -10 14 -16 43 -18 l42 -3 3 -112 c2 -104 4 -113 22
-113 18 0 20 9 22 113 l3 112 43 3 c28 2 42 8 42 18 0 11 -21 14 -110 14 -89
0 -110 -3 -110 -14z"/>
</g>
</svg>
